<svg xmlns="http://www.w3.org/2000/svg" width="50" height="47" viewBox="0 0 50 47"><g><g><path fill="#445dd8" d="M30.585 38.211c0 1.98-1.588 3.59-3.543 3.59a1.034 1.034 0 0 1-1.026-1.04c0-.575.46-1.04 1.026-1.04.822 0 1.49-.677 1.49-1.51s-.668-1.51-1.49-1.51c-.821 0-1.49.677-1.49 1.51 0 .574-.46 1.04-1.026 1.04a1.033 1.033 0 0 1-1.026-1.04c0-1.98 1.59-3.588 3.542-3.588 1.955 0 3.543 1.609 3.543 3.588zM49.11 24.835l-14.736 8.687a8.817 8.817 0 0 1 1.344 4.69c0 4.845-3.891 8.787-8.675 8.787-4.782 0-8.673-3.942-8.673-8.788a8.813 8.813 0 0 1 4.328-7.6L7.58 3.57A2.945 2.945 0 0 0 3.533 2.48c-1.415.828-1.902 2.67-1.085 4.103L.67 7.622C-.712 5.195.11 2.08 2.507.679 4.903-.723 7.977.11 9.36 2.539l15.233 27.244a8.537 8.537 0 0 1 2.45-.36c2.334 0 4.455.941 6.015 2.467l15.018-8.852zM33.664 38.211c0-3.699-2.97-6.708-6.622-6.708-3.65 0-6.62 3.009-6.62 6.708 0 3.699 2.97 6.708 6.62 6.708 3.651 0 6.622-3.01 6.622-6.708zm-.624-8.093L23.25 12.936l16.07-9.4a1.02 1.02 0 0 1 1.402.38 1.048 1.048 0 0 1-.375 1.421l-14.293 8.36 7.739 13.581 13.404-7.84-4.658-8.173a1.047 1.047 0 0 1 .377-1.42 1.018 1.018 0 0 1 1.401.38L50 20.198zm5.947-15.305l-2.576-.699 3.444 6.042a1.048 1.048 0 0 1-.377 1.42 1.024 1.024 0 0 1-1.402-.381l-3.442-6.04-.69 2.608a1.03 1.03 0 0 1-1.257.735 1.041 1.041 0 0 1-.725-1.273l1.33-5.033c.01-.034.02-.066.032-.098l.008-.018c.01-.026.02-.051.032-.075l.008-.015a1.07 1.07 0 0 1 .04-.075c.002-.002.005-.005.006-.008a1.17 1.17 0 0 1 .051-.076l.003-.003c.02-.025.04-.05.063-.074l.004-.004a.81.81 0 0 1 .068-.066c.004-.005.009-.008.014-.012a1.026 1.026 0 0 1 .241-.155 1.067 1.067 0 0 1 .287-.083c.033-.005.064-.007.094-.008l.008-.001a.865.865 0 0 1 .086.002h.014a.879.879 0 0 1 .1.011c.034.006.066.014.099.022l4.968 1.349c.547.149.873.719.726 1.273-.147.555-.71.884-1.257.735z"/></g></g></svg>