<svg xmlns="http://www.w3.org/2000/svg" width="21" height="21" viewBox="0 0 21 21"><g><g><path fill="#3a54d6" d="M18.247 17.526a.812.812 0 0 1-.817.817H3.108a.812.812 0 0 1-.817-.817V8.844H4.18a5.862 5.862 0 0 0-.268 1.755c0 3.43 2.867 6.203 6.39 6.203 3.537 0 6.404-2.773 6.404-6.203 0-.603-.093-1.206-.268-1.755h1.809zm-3.805-7.141c0 2.21-1.849 4.006-4.14 4.006-2.277 0-4.126-1.796-4.126-4.006s1.849-4.006 4.126-4.006c2.291 0 4.14 1.795 4.14 4.006zm3.805-4.823c0 .509-.415.924-.924.924H14.99a.926.926 0 0 1-.924-.924V3.35c0-.51.415-.924.924-.924h2.332c.509 0 .924.415.924.924zm2.331-2.787a2.653 2.653 0 0 0-2.64-2.64H2.64A2.653 2.653 0 0 0 0 2.776v15.3a2.653 2.653 0 0 0 2.64 2.639h15.3a2.653 2.653 0 0 0 2.639-2.64z"/></g></g></svg>