<svg width="30" height="30" viewBox="0 0 30 30" fill="none" xmlns="http://www.w3.org/2000/svg">
<path d="M29.9504 9.37093C29.5125 4.55104 26.1009 1.0541 21.8314 1.0541C18.987 1.0541 16.3827 2.58477 14.9172 5.03799C13.465 2.55304 10.9673 1.05353 8.16853 1.05353C3.89963 1.05353 0.487514 4.55046 0.0501807 9.37035C0.0155633 9.58325 -0.126368 10.7037 0.305195 12.5309C0.927154 15.1665 2.36378 17.5637 4.4587 19.4619L14.9103 28.9465L25.5413 19.4625C27.6362 17.5637 29.0728 15.167 29.6948 12.5309C30.1263 10.7043 29.9844 9.58383 29.9504 9.37093ZM28.5714 12.2667C28.0037 14.6737 26.6877 16.8667 24.7693 18.6045L14.9172 27.3945L5.23413 18.6068C3.31229 16.8656 1.99683 14.6732 1.42853 12.2661C1.02004 10.537 1.18794 9.56017 1.18852 9.55383L1.19717 9.49555C1.57219 5.27281 4.50371 2.20744 8.16853 2.20744C10.8727 2.20744 13.2533 3.86907 14.3829 6.54327L14.9143 7.80276L15.4457 6.54327C16.5575 3.91004 19.0638 2.20802 21.832 2.20802C25.4963 2.20802 28.4284 5.27339 28.8109 9.55094C28.812 9.56017 28.9799 10.5375 28.5714 12.2667Z" fill="white"/>
</svg>
