<svg width="30" height="30" viewBox="0 0 30 30" fill="none" xmlns="http://www.w3.org/2000/svg">
<path d="M12.5792 23.6032C11.1244 23.6032 9.9408 24.7868 9.9408 26.2416C9.9408 27.6965 11.1244 28.88 12.5792 28.88C14.034 28.88 15.2176 27.6965 15.2176 26.2416C15.2176 24.7868 14.034 23.6032 12.5792 23.6032ZM12.5792 27.4068C11.9367 27.4068 11.414 26.884 11.414 26.2415C11.414 25.599 11.9367 25.0763 12.5792 25.0763C13.2217 25.0763 13.7445 25.599 13.7445 26.2415C13.7445 26.8841 13.2217 27.4068 12.5792 27.4068Z" fill="white"/>
<path d="M21.8337 23.6032C20.3789 23.6032 19.1953 24.7868 19.1953 26.2416C19.1953 27.6965 20.3789 28.88 21.8337 28.88C23.2886 28.88 24.4721 27.6965 24.4721 26.2416C24.4721 24.7868 23.2885 23.6032 21.8337 23.6032ZM21.8337 27.4068C21.1912 27.4068 20.6685 26.884 20.6685 26.2415C20.6685 25.599 21.1912 25.0763 21.8337 25.0763C22.4763 25.0763 22.999 25.599 22.999 26.2415C22.999 26.8841 22.4762 27.4068 21.8337 27.4068Z" fill="white"/>
<path d="M22.4833 9.71222H11.9277C11.5209 9.71222 11.1912 10.042 11.1912 10.4488C11.1912 10.8556 11.521 11.1854 11.9277 11.1854H22.4833C22.8902 11.1854 23.2199 10.8556 23.2199 10.4488C23.2199 10.0419 22.8902 9.71222 22.4833 9.71222Z" fill="white"/>
<path d="M21.9089 13.5372H12.5023C12.0955 13.5372 11.7657 13.867 11.7657 14.2738C11.7657 14.6806 12.0955 15.0104 12.5023 15.0104H21.9088C22.3156 15.0104 22.6454 14.6806 22.6454 14.2738C22.6454 13.867 22.3156 13.5372 21.9089 13.5372Z" fill="white"/>
<path d="M29.6684 6.43035C29.3875 6.08558 28.9713 5.88789 28.5265 5.88789H5.58272L5.11936 3.63853C5.02262 3.16931 4.70258 2.77533 4.26307 2.58449L1.03005 1.18117C0.656804 1.01904 0.223034 1.19031 0.0611396 1.56343C-0.100931 1.93668 0.0703389 2.3705 0.443405 2.5324L3.67649 3.93578L7.24051 21.2362C7.38091 21.9176 7.9877 22.4121 8.68338 22.4121H26.3298C26.7366 22.4121 27.0664 22.0823 27.0664 21.6755C27.0664 21.2687 26.7366 20.9389 26.3298 20.9389H8.68344L8.24991 18.8345H26.4662C27.1619 18.8345 27.7687 18.3399 27.909 17.6586L29.9694 7.65812C30.0591 7.22265 29.9494 6.77505 29.6684 6.43035ZM26.4662 17.3614H7.94645L5.88624 7.36099L28.5265 7.36105L26.4662 17.3614Z" fill="white"/>
</svg>
