<svg xmlns="http://www.w3.org/2000/svg" width="50" height="50" viewBox="0 0 50 50"><g><g><path fill="#3a54d6" d="M35.622 38.02c.105.417-.103.834-.417 1.147-.208.104-.417.209-.625.209-.21 0-.417-.105-.626-.21L24.787 32.5l-9.167 6.667c-.414.312-.832.312-1.249 0-.417-.209-.52-.73-.417-1.147l3.543-10.833L8.33 20.52c-.417-.208-.521-.73-.417-1.147.209-.417.626-.73 1.043-.73h11.352L23.85 7.81c.208-.416.521-.73 1.042-.73.522 0 .939.314 1.043.73l3.543 10.833h11.354c.522 0 .939.313 1.043.73.104.418 0 .835-.417 1.147l-9.166 6.667zm-3.019-2.396l-2.71-8.439c-.104-.417.105-.834.418-1.147l7.188-5.209h-8.854c-.522 0-.938-.313-1.042-.73l-2.71-8.44-2.708 8.44c-.208.417-.626.73-1.043.73h-8.854l7.188 5.21c.417.207.521.729.417 1.146l-2.708 8.44 7.187-5.21c.209-.104.417-.208.626-.208.208 0 .417.104.625.208zM23.957 3.852V1.04c0-.626.417-1.043 1.043-1.043.625 0 1.043.417 1.043 1.043v2.81c0 .626-.418 1.043-1.043 1.043a1.044 1.044 0 0 1-1.043-1.04zm2.086 42.295v2.813c0 .625-.418 1.042-1.043 1.042-.626 0-1.043-.417-1.043-1.042v-2.813c0-.626.417-1.043 1.043-1.043.623 0 1.041.521 1.043 1.043zm23.96-21.148c0 .626-.418 1.043-1.044 1.043h-2.812c-.626 0-1.043-.417-1.043-1.043 0-.625.417-1.042 1.043-1.042h2.812c.624 0 1.043.417 1.043 1.042zm-46.15 1.043H1.04c-.626 0-1.043-.417-1.043-1.043 0-.625.417-1.042 1.043-1.042H3.85c.626 0 1.043.417 1.043 1.042 0 .624-.522 1.041-1.04 1.043zm35.419-15.316a1.006 1.006 0 0 1 0-1.458L41.25 7.29a1.007 1.007 0 0 1 1.458 0c.416.414.416 1.04 0 1.457l-1.98 1.979c-.208.209-.417.312-.73.312-.31 0-.52-.103-.727-.312zM10.728 39.27c.418.416.418 1.04 0 1.458l-1.979 1.98a1.127 1.127 0 0 1-.73.312c-.208 0-.52-.105-.73-.313a1.007 1.007 0 0 1 0-1.459l1.98-1.978c.417-.417 1.146-.417 1.46 0zm31.983 1.978a1.008 1.008 0 0 1 0 1.46c-.21.207-.418.312-.73.312-.209 0-.522-.105-.73-.313l-1.98-1.98a1.005 1.005 0 0 1 0-1.457 1.005 1.005 0 0 1 1.458 0zM7.29 8.747a1.005 1.005 0 0 1 0-1.457 1.005 1.005 0 0 1 1.457 0l1.981 1.978a1.006 1.006 0 0 1 0 1.458c-.208.209-.417.312-.73.312a1.13 1.13 0 0 1-.73-.31zm25.106-3.645l1.147-2.605c.207-.521.832-.73 1.353-.521.522.207.73.832.522 1.353L34.27 5.934c-.104.417-.521.625-.938.625-.105 0-.313 0-.417-.104-.52-.208-.728-.832-.52-1.353zm-14.79 39.794L16.459 47.5c-.105.416-.522.626-.939.626-.104 0-.313 0-.417-.105-.521-.206-.73-.832-.521-1.353l1.147-2.604c.206-.522.832-.73 1.353-.522.522.208.73.834.524 1.354zM47.919 34.79c-.104.417-.521.625-.938.625-.105 0-.313 0-.417-.103l-2.605-1.148c-.52-.206-.73-.832-.52-1.353.205-.521.831-.73 1.352-.521l2.605 1.146c.521.313.834.835.523 1.354zM6.458 17.081c-.105.417-.522.626-.939.626-.104 0-.313 0-.417-.104L2.5 16.456c-.521-.206-.73-.832-.521-1.353.206-.522.832-.73 1.353-.522l2.604 1.145c.52.209.833.834.522 1.355zm37.293.415c-.208-.519.104-1.144.626-1.353l2.604-1.042c.52-.209 1.144.104 1.353.625.21.52-.104 1.145-.626 1.354l-2.604 1.043c-.209.104-.313.104-.417.104a1 1 0 0 1-.936-.73zm-37.398 14.9c.209.52-.104 1.145-.625 1.353l-2.605 1.043a.788.788 0 0 1-.417.104c-.417 0-.73-.208-.938-.625-.21-.522.104-1.147.625-1.354l2.605-1.042c.521-.209 1.145.103 1.355.521zm28.545 14.376c.21.52-.104 1.144-.625 1.354-.209.104-.313.104-.417.104-.417 0-.73-.21-.938-.626L31.876 45c-.21-.52.103-1.145.625-1.353.52-.209 1.144.104 1.353.626zM15.103 3.018c-.208-.52.104-1.146.624-1.355.52-.208 1.147.104 1.353.626l1.043 2.604c.208.521-.102 1.145-.624 1.354-.208.104-.312.104-.417.104-.417 0-.73-.209-.938-.623z"/></g></g></svg>