<svg xmlns="http://www.w3.org/2000/svg" width="22" height="18" viewBox="0 0 22 18"><g><g><path fill="#fff" d="M21.56 2.887a8.641 8.641 0 0 1-2.491.67 4.315 4.315 0 0 0 1.902-2.385 8.518 8.518 0 0 1-2.746 1.045A4.317 4.317 0 0 0 15.063.851a4.326 4.326 0 0 0-4.327 4.327c0 .335.04.67.107.991A12.301 12.301 0 0 1 1.92 1.641a4.295 4.295 0 0 0-.589 2.184c0 1.5.764 2.826 1.93 3.604a4.363 4.363 0 0 1-1.957-.55v.054a4.328 4.328 0 0 0 3.47 4.247c-.362.094-.75.147-1.139.147-.281 0-.549-.026-.817-.067a4.334 4.334 0 0 0 4.046 3.001 8.665 8.665 0 0 1-5.372 1.849c-.362 0-.697-.013-1.045-.054A12.224 12.224 0 0 0 7.092 18c7.958 0 12.312-6.591 12.312-12.312 0-.188 0-.375-.014-.563a9.301 9.301 0 0 0 2.17-2.237z"/></g></g></svg>